<?xml version="1.0" encoding="UTF-8" standalone="no"?>
<svg width="22px" height="13px" viewBox="0 0 22 13" version="1.1" xmlns="http://www.w3.org/2000/svg" xmlns:xlink="http://www.w3.org/1999/xlink">
    <!-- Generator: sketchtool 3.7.2 (28276) - http://www.bohemiancoding.com/sketch -->
    <title>84473466-5844-42D2-A9E8-45FE74C47C38</title>
    <desc>Created with sketchtool.</desc>
    <defs></defs>
    <g id="Homescreen-with-Menu" stroke="none" stroke-width="1" fill="none" fill-rule="evenodd">
        <g id="Desktop--Blue" transform="translate(-973.000000, -319.000000)" fill="#374550">
            <g id="Table-Widget" transform="translate(10.845872, 226.327349)">
                <g id="Table" transform="translate(331.000000, 80.000000)">
                    <g id="Header" transform="translate(16.411148, 9.034345)">
                        <g id="sort" transform="translate(615.033289, 3.965648)">
                            <path d="M7.87632123,11.8969439 L12.470842,11.8969439 L12.470842,9.91411994 L7.87632123,9.91411994 L7.87632123,11.8969439 L7.87632123,11.8969439 Z M7.87632123,0 L7.87632123,1.98282399 L21.6598834,1.98282399 L21.6598834,0 L7.87632123,0 L7.87632123,0 Z M7.87632123,6.93988396 L17.0653627,6.93988396 L17.0653627,4.95705997 L7.87632123,4.95705997 L7.87632123,6.93988396 L7.87632123,6.93988396 Z" id="Shape"></path>
                            <polygon id="Path" points="4.92270077 0 2.95362046 0 2.95362046 7.93129596 0 7.93129596 3.93816062 11.8969439 7.87632123 7.93129596 4.92270077 7.93129596"></polygon>
                        </g>
                    </g>
                </g>
            </g>
        </g>
    </g>
</svg>